<?xml version="1.0" encoding="utf-8"?>
<!-- Generator: Adobe Illustrator 19.1.0, SVG Export Plug-In . SVG Version: 6.00 Build 0)  -->
<svg version="1.1" id="Layer_1" xmlns="http://www.w3.org/2000/svg" xmlns:xlink="http://www.w3.org/1999/xlink" x="0px" y="0px"
	 viewBox="0 0 242.7 84.6" style="enable-background:new 0 0 242.7 84.6;" xml:space="preserve">
<style type="text/css">
	.st0{fill:#5AC5C4;}
</style>
<g>
	<path d="M12.1,50h13c0-2,0.4-3.9,1.2-5.6c0.8-1.7,1.8-3.2,3.1-4.5h0.7c-0.1,0.6-0.2,1.3-0.2,1.9c0,0.6-0.1,1.2-0.1,1.9
		c0,0.7,0,1.3,0,1.9c0,0.9,0,1.7,0,2.4c0,0.7,0.1,1.3,0.1,1.8c0,0.6,0.1,1.1,0.2,1.5H1.6v-0.7l4.3-1.1V2.9L1.6,1.8V1.1h14.8v0.7
		l-4.3,1.1V50z"/>
	<path d="M45.9,49.7l4.3,1.1v0.7H35.5v-0.7l4.3-1.1V2.9l-4.3-1.1V1.1h14.8v0.7l-4.3,1.1V49.7z"/>
	<path d="M67.1,50h13c0-2,0.4-3.9,1.2-5.6c0.8-1.7,1.8-3.2,3.1-4.5h0.7c-0.1,0.6-0.2,1.3-0.2,1.9c0,0.6-0.1,1.2-0.1,1.9
		c0,0.7,0,1.3,0,1.9c0,0.9,0,1.7,0,2.4c0,0.7,0.1,1.3,0.1,1.8c0,0.6,0.1,1.1,0.2,1.5H56.7v-0.7l4.3-1.1V2.9l-4.3-1.1V1.1h14.8v0.7
		l-4.3,1.1V50z"/>
	<path d="M103.5,31.3v18.4l4.3,1.1v0.7H93.1v-0.7l4.3-1.1v-18L86.2,2.9l-4.3-1.1V1.1H97v0.7l-4.3,1.1l10.2,26.3l9.9-25.6l-4.7-1.8
		V1.1H119v0.7l-4.7,1.8L103.5,31.3z"/>
	<path d="M138.1,51.5v-0.7l4.3-1.1V2.9l-4.3-1.1V1.1h13c2.3,0,4.2,0.3,5.9,0.8c1.7,0.5,3,1.2,4.1,2.1c1.1,0.9,1.9,1.9,2.5,3.1
		c0.6,1.2,0.8,2.4,0.8,3.8c0,1.1-0.2,2-0.5,2.8c-0.3,0.8-0.7,1.5-1.2,2.1c-0.5,0.6-1.1,1.1-1.7,1.6c-0.6,0.5-1.3,0.8-2,1.1
		c-1.6,0.7-3.4,1.2-5.4,1.4c3,0.3,5.6,1,7.9,2.2c1,0.5,2,1.2,2.9,1.9c0.9,0.7,1.8,1.7,2.5,2.7c0.7,1.1,1.3,2.3,1.8,3.7
		c0.5,1.4,0.7,3,0.7,4.9c0,2.3-0.4,4.4-1.3,6.3c-0.9,2-2.1,3.7-3.7,5.1c-1.6,1.5-3.5,2.6-5.8,3.5c-2.3,0.8-4.8,1.3-7.6,1.3H138.1z
		 M148.5,19.1h2.5c2.2,0,3.9-0.8,5.2-2.1c1.3-1.4,2-3.4,2-6.2c0-2.7-0.7-4.8-2-6.2c-1.3-1.4-3.1-2.1-5.2-2.1h-2.5V19.1z M148.5,20.5
		V50h2.5c1.6,0,3.1-0.3,4.5-0.9c1.4-0.6,2.6-1.6,3.6-2.8c1-1.2,1.8-2.8,2.4-4.6c0.6-1.8,0.9-4,0.9-6.4c0-2.4-0.3-4.6-0.9-6.4
		c-0.6-1.8-1.4-3.4-2.4-4.6c-1-1.2-2.2-2.2-3.6-2.8c-1.4-0.6-2.9-0.9-4.5-0.9H148.5z"/>
	<path d="M193.9,36.7h-14.8L175.5,49l4.7,1.8v0.7h-10.8v-0.7l4.7-1.8l14-49h1.1l15.1,49.7l4.3,1.1v0.7h-15.1v-0.7l4.3-1.1
		L193.9,36.7z M179.5,35.4h14l-7.2-23.8L179.5,35.4z"/>
	<path d="M224.8,31.3v18.4l4.3,1.1v0.7h-14.8v-0.7l4.3-1.1v-18L207.5,2.9l-4.3-1.1V1.1h15.1v0.7L214,2.9l10.2,26.3l9.9-25.6
		l-4.7-1.8V1.1h10.8v0.7l-4.7,1.8L224.8,31.3z"/>
</g>
<g>
	<path class="st0" d="M54.3,45.3c0-0.1,0.1-0.1,0.4-0.1c0.8,0,1.2,0.1,1.2,0.2c-0.5,1.5-1.1,3.1-1.7,4.6c-0.6,1.5-1.2,3-1.7,4.6
		c-0.5,1.5-1,3.1-1.3,4.7c-0.4,1.6-0.5,3.2-0.6,4.9c0,2,0.4,3.7,1.1,5c0.7,1.3,2,2,3.8,2c0.5,0,1.1-0.1,1.7-0.4
		c0.6-0.3,1.1-0.7,1.6-1.2c0.5-0.5,0.9-1.1,1.2-1.9c0.3-0.7,0.5-1.6,0.5-2.6c-1-0.3-1.8-0.9-2.5-1.7c-0.6-0.8-1.1-1.6-1.5-2.4
		c-0.3-0.8-0.6-1.5-0.7-2.1c-0.1-0.6-0.2-0.8-0.2-0.8c0-0.4,0.1-0.7,0.2-1c0.1-0.3,0.4-0.5,0.8-0.5c0.6,0,1.2,0.3,1.7,0.8
		c0.5,0.5,1,1.2,1.3,2c0.4,0.8,0.6,1.6,0.8,2.5c0.2,0.9,0.3,1.7,0.3,2.5v0.3c0.2,0,0.4,0,0.6,0.1c0.2,0.1,0.4,0.1,0.6,0.1
		c1.4,0,2.9-1,4.6-2.9h0.6c-1.9,2.2-3.6,3.3-5.2,3.3c-0.4,0-0.8-0.1-1.1-0.2h-0.1c-0.2,2-0.8,3.5-1.8,4.6c-0.9,1.1-2.1,1.6-3.5,1.6
		c-1.2,0-2.2-0.2-3-0.6c-0.8-0.4-1.5-0.9-2-1.5c-0.5-0.7-0.8-1.4-1.1-2.3c-0.2-0.9-0.3-1.9-0.3-2.9c0-1.2,0.1-2.6,0.4-4
		c0.3-1.4,0.6-2.9,1-4.3c0.4-1.4,0.8-2.8,1.3-4c0.5-1.3,0.9-2.4,1.3-3.4c0.4-1,0.7-1.8,1-2.3C54.2,45.5,54.3,45.3,54.3,45.3z
		 M60.4,64.7v-0.2c0-1.8-0.5-3.7-1.4-5.5h-0.1c-0.1-0.1-0.3-0.3-0.6-0.7c-0.3-0.3-0.6-0.5-0.8-0.5c-0.2,0-0.3,0.1-0.4,0.3
		C57,58.4,57,58.7,57,59.1c0,0.7,0.1,1.4,0.4,2c0.2,0.6,0.5,1.2,0.9,1.7c0.4,0.5,0.7,0.9,1.1,1.2C59.7,64.4,60.1,64.6,60.4,64.7z"/>
	<path class="st0" d="M70.8,56.8h0.1c0.1,0,0.2,0.1,0.2,0.2c0,0,0,0.1-0.1,0.2c-2.1,1.6-3.2,4-3.2,7.2c0,0.7,0.1,1.4,0.3,2.2
		c0.2,0.8,0.4,1.5,0.8,2.2c0.3,0.7,0.8,1.2,1.3,1.7c0.5,0.4,1.1,0.7,1.8,0.7c0.6,0,1.2-0.1,1.9-0.4c0.7-0.3,1.3-0.7,1.8-1.2
		c0.6-0.5,1-1.2,1.4-1.9c0.4-0.8,0.5-1.6,0.5-2.6V65c-0.6-0.1-1.3-0.2-1.9-0.5c-0.6-0.3-1.2-0.6-1.7-1.1s-0.9-1-1.3-1.6
		c-0.3-0.6-0.5-1.3-0.5-2.1c0-0.3,0-0.7,0.1-1.1c0.1-0.4,0.2-0.7,0.3-1c0.1-0.3,0.3-0.6,0.5-0.8c0.2-0.2,0.4-0.3,0.6-0.3
		c0.4,0,0.8,0.3,1.3,0.8c0.5,0.5,1,1.2,1.4,2c0.4,0.8,0.8,1.7,1.1,2.6c0.3,0.9,0.5,1.8,0.5,2.6H78c0.1,0,0.2,0,0.3,0
		c0.1,0,0.2,0,0.3,0c0.9,0,1.7-0.2,2.5-0.7c0.8-0.5,1.5-1,2.2-1.8h0.5c-0.2,0.3-0.5,0.6-0.8,0.9c-0.3,0.3-0.7,0.6-1.2,0.9
		c-0.5,0.3-1,0.6-1.6,0.8c-0.6,0.2-1.1,0.3-1.6,0.3c-0.1,0-0.2,0-0.3,0c-0.1,0-0.2,0-0.3,0h-0.1c0,0.9-0.2,1.7-0.5,2.5
		c-0.3,0.8-0.8,1.5-1.3,2.1s-1.2,1.1-2,1.4c-0.8,0.4-1.6,0.5-2.6,0.5c-0.6,0-1.3-0.2-1.9-0.5c-0.6-0.4-1.2-0.8-1.7-1.4
		c-0.5-0.6-0.9-1.3-1.2-2.2c-0.3-0.9-0.5-1.8-0.5-2.8c0-1.5,0.4-3,1.2-4.3C68.1,59,69.3,57.9,70.8,56.8z M77.5,64.6
		c-0.1-0.5-0.1-1-0.2-1.5c-0.1-0.4-0.2-0.9-0.4-1.3c-0.2-0.5-0.4-1-0.7-1.5c-0.3-0.6-0.6-1.2-1.1-1.9c-0.5-0.8-0.9-1.2-1.2-1.2
		c-0.2,0-0.4,0.2-0.6,0.5c-0.2,0.3-0.3,0.7-0.3,1c0,0.3,0.1,0.8,0.3,1.4c0.2,0.6,0.5,1.2,0.9,1.8c0.4,0.6,0.8,1.2,1.4,1.7
		C76.2,64.1,76.8,64.4,77.5,64.6z"/>
	<path class="st0" d="M96.3,61.5c-0.4,2.5-1.5,4.8-3.2,6.9c0.1,0.7,0.4,1.3,0.7,1.8c0.3,0.5,0.7,0.7,1.3,0.7c0.5,0,1-0.1,1.4-0.4
		c0.4-0.2,0.9-0.7,1.5-1.3c0.6-0.7,1.4-1.5,2.3-2.7c0.9-1.1,2.1-2.6,3.6-4.3h0.4c-1.5,1.9-2.7,3.4-3.6,4.6c-0.9,1.2-1.7,2.1-2.4,2.8
		s-1.2,1.2-1.8,1.5c-0.5,0.3-1.1,0.4-1.8,0.4c-1.2,0-2.1-0.7-2.6-2c-1.5,1.4-2.9,2.1-4.3,2.1c-1.5,0-2.6-0.6-3.5-1.8
		c-0.8-1.2-1.3-2.9-1.3-5.2c0-0.3,0-0.9,0.1-1.8c0.1-0.9,0.2-1.7,0.3-2.6c0.2-0.9,0.4-1.7,0.6-2.3c0.3-0.7,0.5-1,0.9-1
		c0.8,0,1.2,0.1,1.2,0.2c-0.2,0.4-0.4,0.9-0.6,1.5c-0.2,0.6-0.4,1.2-0.5,1.9c-0.2,0.7-0.3,1.4-0.4,2.2c-0.1,0.8-0.1,1.5-0.1,2.2
		c0,0.8,0.1,1.6,0.2,2.4c0.1,0.8,0.3,1.5,0.6,2.1c0.3,0.6,0.6,1.1,1,1.5c0.4,0.4,0.9,0.6,1.5,0.6c0.5,0,1.1-0.1,1.8-0.4
		c0.7-0.3,1.5-0.8,2.2-1.6c-0.4-1.1-0.6-2.5-0.6-4.2c0-0.5,0.1-1.3,0.2-2.2c0.1-0.9,0.3-1.8,0.5-2.7c0.3-0.9,0.6-1.6,0.9-2.3
		c0.4-0.6,0.8-1,1.4-1c0.4,0,0.7,0.1,1,0.4c0.3,0.3,0.5,0.6,0.6,0.9s0.3,0.7,0.3,1.1c0.1,0.4,0.1,0.8,0.1,1.1c0,0.2,0,0.3,0,0.5
		c0,0.2,0,0.3-0.1,0.5V61.5z M95.9,61.5v-0.2c0-0.2,0.1-0.3,0.1-0.5c0-0.2,0-0.3,0-0.5c0-0.7-0.1-1.4-0.4-1.9
		c-0.3-0.6-0.5-0.8-0.9-0.8c-0.1,0-0.3,0.1-0.5,0.4c-0.2,0.2-0.4,0.7-0.6,1.3c-0.2,0.6-0.4,1.4-0.6,2.4c-0.2,1-0.3,2.3-0.3,3.8
		c0,0.5,0,0.9,0.1,1.3c0,0.4,0.1,0.8,0.2,1.2C94.6,65.9,95.5,63.7,95.9,61.5z"/>
	<path class="st0" d="M107.9,69.7l-0.1,0.1c-0.1,0-0.2-0.1-0.2-0.3c0,0,0.2-0.1,0.6-0.3c0.4-0.2,0.9-0.3,1.4-0.5
		c0.5-0.2,1.1-0.3,1.6-0.5c0.5-0.2,0.9-0.3,1.1-0.4c0.3-1.6,0.6-3.2,0.8-4.7c0.2-1.5,0.4-3,0.5-4.5c0.1-1.5,0.2-3,0.2-4.6
		c0.1-1.6,0.1-3.2,0.1-5c-0.7,1.7-2.4,4.2-5,7.4c-2.6,3.2-4.1,5.2-4.7,5.9h-0.5c0.4-0.5,0.7-0.9,0.9-1.2c0.2-0.3,1.4-1.9,3.7-4.7
		c2.2-2.9,3.7-5,4.5-6.3c0.7-1.3,1.4-2.8,1.9-4.5c0.1-0.1,0.1-0.1,0.2-0.1c0.1,0,0.2,0.3,0.3,0.8c0.1,0.6,0.1,1.2,0.1,1.9
		c0,0.7,0,1.4,0,2.1s0,1.2,0,1.6c0,2.6-0.1,5.2-0.4,7.9c-0.2,2.6-0.6,5.1-1,7.4c1.2-0.5,2.4-1.1,3.5-2c1.1-0.9,2.1-1.8,3-2.9h0.5
		c-1.1,1.3-2.2,2.4-3.3,3.2c-1.1,0.8-2.4,1.5-3.7,2.1c-0.1,0.3-0.1,0.7-0.2,1.2c-0.1,0.5-0.2,0.9-0.3,1.4c-0.1,0.5-0.3,0.9-0.4,1.2
		c-0.2,0.3-0.3,0.5-0.5,0.5c-0.7,0-1-0.1-1-0.4c0.1-0.5,0.3-1.1,0.4-1.6c0.1-0.6,0.3-1.1,0.4-1.6c-0.7,0.2-1.4,0.5-2.1,0.7
		C109.4,69.2,108.6,69.5,107.9,69.7z"/>
	<path class="st0" d="M120.9,62.2h-0.5c1.4-1.6,2.7-2.9,4-3.9s2.2-1.5,2.9-1.5c0.8,0,1.4,0.2,1.9,0.6c0.4,0.4,0.8,0.9,1,1.5
		c0.2,0.6,0.3,1.3,0.4,2c0.1,0.7,0.1,1.4,0.1,2.1c0,0.7,0,1.4-0.1,2.3c-0.1,0.9-0.1,2-0.1,3.2c0,1.8,0.6,2.7,1.7,2.7
		c0.4,0,0.9-0.1,1.4-0.4c0.6-0.3,1.2-0.7,2-1.4c0.8-0.7,1.8-1.6,2.9-2.8c1.1-1.2,2.4-2.6,3.8-4.4h0.5c-1.5,1.8-2.8,3.3-3.9,4.5
		c-1.1,1.2-2,2.1-2.8,2.8c-0.8,0.7-1.5,1.2-2.1,1.6c-0.6,0.3-1.1,0.5-1.6,0.5c-0.8,0-1.4-0.1-1.8-0.4c-0.5-0.3-0.8-0.6-1-1.1
		c-0.2-0.5-0.4-1.1-0.4-1.7c-0.1-0.7-0.1-1.4-0.1-2.3c0-0.8,0-1.5,0.1-2.1c0.1-0.6,0.1-1.3,0.1-2.2c0-1.5-0.1-2.6-0.3-3.4
		c-0.2-0.8-0.7-1.2-1.5-1.2c-0.3,0-0.7,0.2-1.2,0.5c-0.5,0.3-1.1,0.7-1.7,1.2c-0.6,0.5-1.2,1.1-1.8,1.7
		C121.9,61.2,121.4,61.7,120.9,62.2z M129.3,45.6L129.3,45.6c-0.1-0.2,0-0.3,0.2-0.3c0.1,0,0.1,0,0.2,0.1c0.6,0.4,1,1,1.3,1.8
		c0.3,0.8,0.5,1.5,0.5,2.1c0,0.4-0.1,0.8-0.3,1.3c-0.2,0.5-0.4,0.9-0.6,1.3s-0.5,0.7-0.7,1c-0.3,0.3-0.5,0.4-0.6,0.4
		c-0.1,0-0.2-0.1-0.2-0.2c0-0.1,0-0.1,0.1-0.2c0.7-0.9,1-2.2,1-3.9C130.1,47.9,129.8,46.8,129.3,45.6z"/>
	<path class="st0" d="M151.5,83c-0.1,0.1-0.1,0.2-0.2,0.2c0,0-0.1,0-0.1,0c-0.1,0-0.1-0.1-0.1-0.2c-0.3-1.7-0.8-3-1.5-4.1
		c-0.7-1-1.8-1.7-3.2-2.1c-0.1,0-0.2-0.1-0.2-0.3l0.1-0.1c0.8-0.5,1.5-1,2.3-1.6c0.8-0.6,1.5-1.2,2.3-1.9c-0.1-0.6-0.1-1.1-0.2-1.7
		c-0.1-0.5-0.1-1.1-0.2-1.7c-1.3,1.2-2.9,1.9-4.6,1.9c-0.6,0-1.2-0.2-1.8-0.6c-0.5-0.4-1-0.9-1.4-1.6c-0.4-0.7-0.7-1.4-0.9-2.3
		c-0.2-0.9-0.3-1.7-0.3-2.6c0-1,0.2-1.9,0.5-2.8c0.3-0.9,0.8-1.7,1.4-2.5c0.7-0.7,1.5-1.3,2.5-1.8c1-0.4,2.3-0.7,3.8-0.7
		c0.1,0,0.2,0.1,0.2,0.2c0,0.1-0.1,0.2-0.2,0.2c-2.3,0-4,0.6-5,1.9c-1,1.3-1.6,3.1-1.6,5.7c0,0.5,0.1,1.1,0.3,1.8
		c0.2,0.7,0.4,1.4,0.7,2.1c0.3,0.7,0.7,1.3,1.2,1.8c0.5,0.5,1,0.7,1.6,0.7c0.4,0,0.9-0.1,1.4-0.4c0.5-0.2,1-0.6,1.6-1.2l0.5-0.5
		c-0.1-0.6-0.2-1.5-0.3-2.5c-0.1-1-0.2-2.1-0.2-3.2c0-0.8,0-1.6,0.1-2.4c0.1-0.8,0.2-1.5,0.4-2.1c0.2-0.6,0.5-1.1,0.9-1.5
		c0.4-0.4,0.8-0.6,1.4-0.7h0.1c1.1,0,1.6,1.1,1.6,3.3c0,0.5-0.1,1-0.2,1.7c-0.1,0.7-0.3,1.4-0.5,2.1c-0.2,0.8-0.5,1.5-0.8,2.2
		c-0.3,0.7-0.7,1.4-1.1,2c0,0.7,0,1.3,0.1,1.9c0.1,0.6,0.1,1.2,0.2,1.8c1.6-1.5,3.1-3.1,4.4-4.6c1.3-1.6,2.6-3.3,3.9-5h0.5
		c-1.4,2-2.8,3.8-4.2,5.4c-1.4,1.6-2.9,3.2-4.5,4.8c0,0.4,0,0.7,0,1.1c0,0.4,0,0.7,0,1.1c0,1.6-0.1,3.1-0.2,4.5
		C152,80.5,151.8,81.8,151.5,83z M151,73.5c-0.6,0.5-1.3,1.1-2,1.6c-0.7,0.5-1.4,1-2.1,1.5c1.1,0.3,2,0.9,2.7,1.8
		c0.7,0.9,1.3,2.1,1.7,3.5c0-0.4,0.1-0.8,0.1-1.2c0-0.4,0-0.8,0-1.3c0-0.9,0-1.9-0.1-2.9C151.2,75.6,151.1,74.6,151,73.5z
		 M151.9,67.4c0.8-1.3,1.4-2.6,1.8-3.8c0.4-1.3,0.5-2.5,0.5-3.8c0-0.9-0.1-1.5-0.4-2c-0.3-0.4-0.5-0.7-0.9-0.7
		c-0.6,0.1-1,0.4-1.2,1.1c-0.2,0.6-0.3,1.6-0.3,2.8c0,1.2,0.1,2.4,0.2,3.4C151.7,65.6,151.8,66.5,151.9,67.4z"/>
	<path class="st0" d="M173.6,61.5c-0.4,2.5-1.5,4.8-3.2,6.9c0.1,0.7,0.4,1.3,0.7,1.8c0.3,0.5,0.7,0.7,1.3,0.7c0.5,0,1-0.1,1.4-0.4
		c0.4-0.2,0.9-0.7,1.5-1.3c0.6-0.7,1.4-1.5,2.3-2.7c0.9-1.1,2.1-2.6,3.6-4.3h0.4c-1.5,1.9-2.7,3.4-3.6,4.6c-0.9,1.2-1.7,2.1-2.4,2.8
		s-1.2,1.2-1.8,1.5c-0.5,0.3-1.1,0.4-1.8,0.4c-1.2,0-2.1-0.7-2.6-2c-1.5,1.4-2.9,2.1-4.3,2.1c-1.5,0-2.6-0.6-3.5-1.8
		c-0.8-1.2-1.3-2.9-1.3-5.2c0-0.3,0-0.9,0.1-1.8c0.1-0.9,0.2-1.7,0.3-2.6c0.2-0.9,0.4-1.7,0.6-2.3c0.3-0.7,0.5-1,0.9-1
		c0.8,0,1.2,0.1,1.2,0.2c-0.2,0.4-0.4,0.9-0.6,1.5c-0.2,0.6-0.4,1.2-0.5,1.9c-0.2,0.7-0.3,1.4-0.4,2.2c-0.1,0.8-0.1,1.5-0.1,2.2
		c0,0.8,0.1,1.6,0.2,2.4c0.1,0.8,0.3,1.5,0.6,2.1c0.3,0.6,0.6,1.1,1,1.5c0.4,0.4,0.9,0.6,1.5,0.6c0.5,0,1.1-0.1,1.8-0.4
		c0.7-0.3,1.5-0.8,2.2-1.6c-0.4-1.1-0.6-2.5-0.6-4.2c0-0.5,0.1-1.3,0.2-2.2c0.1-0.9,0.3-1.8,0.5-2.7c0.3-0.9,0.6-1.6,0.9-2.3
		c0.4-0.6,0.8-1,1.4-1c0.4,0,0.7,0.1,1,0.4c0.3,0.3,0.5,0.6,0.6,0.9s0.3,0.7,0.3,1.1c0.1,0.4,0.1,0.8,0.1,1.1c0,0.2,0,0.3,0,0.5
		c0,0.2,0,0.3-0.1,0.5V61.5z M173.2,61.5v-0.2c0-0.2,0.1-0.3,0.1-0.5c0-0.2,0-0.3,0-0.5c0-0.7-0.1-1.4-0.4-1.9
		c-0.3-0.6-0.5-0.8-0.9-0.8c-0.1,0-0.3,0.1-0.5,0.4c-0.2,0.2-0.4,0.7-0.6,1.3c-0.2,0.6-0.4,1.4-0.6,2.4c-0.2,1-0.3,2.3-0.3,3.8
		c0,0.5,0,0.9,0.1,1.3c0,0.4,0.1,0.8,0.2,1.2C171.8,65.9,172.8,63.7,173.2,61.5z"/>
	<path class="st0" d="M198.4,62.2h0.5c-1.5,1.8-2.8,3.3-4.1,4.5c-1.2,1.2-2.4,2.1-3.5,2.8c-1.1,0.7-2.1,1.2-3,1.5
		c-0.9,0.3-1.7,0.5-2.5,0.5c-1.5,0-2.8-0.6-3.8-1.8c-1-1.2-1.5-2.8-1.5-4.8c0-0.9,0.2-1.8,0.5-2.8c0.3-1,0.7-1.8,1.3-2.6
		c0.6-0.8,1.3-1.4,2.2-1.9c0.9-0.5,1.9-0.8,3.1-0.8c1.6,0,2.9,0.2,3.9,0.7c1,0.5,1.5,1.2,1.5,2c0,0.9-0.5,1.6-1.5,2.1
		c-1,0.5-2.2,0.8-3.6,0.8h-5.4c-0.4,1.3-0.6,2.5-0.6,3.8c0,1.7,0.3,2.9,0.8,3.7s1.6,1.2,3.1,1.2c1.4,0,3.2-0.7,5.2-2
		C193.4,67.8,195.8,65.5,198.4,62.2z M188,62.1c1.2,0,2.3-0.2,3.2-0.7c1-0.4,1.4-1.1,1.4-1.9c0-0.7-0.4-1.2-1.2-1.7
		c-0.8-0.4-1.8-0.7-3.1-0.7c-2.6,0-4.5,1.5-5.5,4.6c0,0.1,0,0.1,0,0.2c0,0,0,0.1,0,0.1H188z"/>
</g>
</svg>
